<svg xmlns="http://www.w3.org/2000/svg" viewBox="0 0 64 64">
  <defs>
    <linearGradient id="g" x1="0" y1="0" x2="1" y2="1">
      <stop offset="0%" stop-color="#38bdf8"/>
      <stop offset="100%" stop-color="#a78bfa"/>
    </linearGradient>
  </defs>
  <rect width="64" height="64" rx="14" fill="#0f172a"/>
  <rect x="4" y="4" width="56" height="56" rx="10" fill="none" stroke="url(#g)" stroke-width="2" opacity="0.5"/>
  <!-- Game controller -->
  <path d="M16 28h32a6 6 0 0 1 6 6v4a6 6 0 0 1-6 6H16a6 6 0 0 1-6-6v-4a6 6 0 0 1 6-6z" fill="#1e293b" stroke="url(#g)" stroke-width="1.5"/>
  <!-- D-pad -->
  <rect x="19" y="33" width="10" height="3" rx="1" fill="#38bdf8"/>
  <rect x="22.5" y="29.5" width="3" height="10" rx="1" fill="#38bdf8"/>
  <!-- Buttons -->
  <circle cx="40" cy="33" r="2.5" fill="#4ade80"/>
  <circle cx="46" cy="33" r="2.5" fill="#f472b6"/>
  <!-- Bug antenna -->
  <path d="M28 28c-2-6-6-8-8-10" stroke="#ef4444" stroke-width="1.5" stroke-linecap="round" fill="none"/>
  <path d="M36 28c2-6 6-8 8-10" stroke="#ef4444" stroke-width="1.5" stroke-linecap="round" fill="none"/>
  <circle cx="20" cy="17" r="2" fill="#ef4444"/>
  <circle cx="44" cy="17" r="2" fill="#ef4444"/>
  <!-- Bug text -->
  <text x="32" y="54" text-anchor="middle" font-family="monospace" font-size="7" font-weight="bold" fill="#38bdf8" opacity="0.6">GDT</text>
</svg>
